<?xml version="1.0" standalone="no"?>
<!DOCTYPE svg PUBLIC "-//W3C//DTD SVG 20010904//EN"
 "http://www.w3.org/TR/2001/REC-SVG-20010904/DTD/svg10.dtd">
<svg version="1.0" xmlns="http://www.w3.org/2000/svg"
 width="300.000000pt" height="347.000000pt" viewBox="0 0 300.000000 347.000000"
 preserveAspectRatio="xMidYMid meet">
<metadata>
Created by potrace 1.10, written by Peter Selinger 2001-2011
</metadata>
<g transform="translate(0.000000,347.000000) scale(0.100000,-0.100000)"
fill="#000000" stroke="none">
<path d="M1263 3056 c-91 -43 -158 -164 -185 -336 l-13 -81 -51 -23 c-85 -39
-164 -122 -164 -172 0 -12 6 -15 26 -10 58 15 192 27 231 21 24 -3 57 -18 74
-33 31 -25 31 -28 27 -91 -5 -66 -26 -126 -102 -296 -46 -105 -69 -197 -64
-257 5 -50 30 -88 57 -88 14 0 16 -15 17 -98 1 -152 49 -281 141 -380 25 -26
52 -65 61 -87 25 -62 71 -133 103 -158 l30 -23 -27 -169 c-34 -210 -35 -211
-156 -226 -93 -12 -143 -35 -157 -72 -12 -31 -5 -37 32 -26 52 15 69 12 62
-11 -4 -12 -2 -20 4 -20 30 0 207 32 222 41 10 5 38 9 63 9 55 0 65 14 37 48
-38 48 -40 63 -21 163 10 52 26 135 36 184 9 50 25 101 35 114 11 13 19 35 19
49 0 24 2 23 48 -20 27 -25 59 -49 71 -53 l23 -7 -4 -193 c-4 -225 -2 -221
-104 -255 -70 -24 -124 -67 -124 -100 0 -18 4 -20 23 -14 33 11 90 23 106 24
9 0 11 -8 7 -26 -7 -25 -5 -26 24 -21 16 4 55 22 85 42 l55 35 52 -14 c29 -8
57 -10 61 -6 15 14 -4 52 -42 87 l-36 33 3 201 c2 185 4 203 23 229 12 15 24
49 26 74 3 25 8 46 11 46 4 0 28 -21 55 -47 34 -34 50 -44 55 -36 6 9 18 3 42
-22 30 -31 60 -46 60 -29 0 35 -99 123 -108 96 -2 -7 -18 4 -36 23 -52 55 -90
43 -115 -37 -15 -45 -47 -88 -67 -88 -17 0 -72 39 -119 82 -16 16 -34 27 -40
25 -5 -3 -18 0 -27 4 -13 7 -24 -3 -53 -51 -32 -52 -40 -60 -58 -54 -36 11
-92 79 -131 156 -39 79 -76 139 -76 124 0 -32 -99 139 -115 199 -5 17 -9 32
-10 35 -1 3 -5 44 -9 92 -9 94 -3 143 17 135 7 -2 21 -1 32 3 11 4 28 3 38 -2
15 -7 17 -4 17 29 1 59 16 125 31 134 9 5 10 9 2 9 -21 0 -33 63 -33 176 l0
114 38 42 c20 24 52 59 69 78 27 29 103 165 103 184 0 3 -7 3 -15 0 -9 -4 -29
8 -50 29 -30 30 -42 35 -80 35 -53 -1 -174 49 -175 72 0 8 10 32 23 54 26 46
126 110 195 125 42 9 49 7 88 -20 29 -19 51 -47 70 -84 36 -75 30 -131 -37
-311 -42 -113 -52 -151 -53 -206 -1 -55 -3 -63 -12 -46 -17 32 -26 4 -14 -42
6 -23 15 -38 21 -34 6 3 22 1 37 -4 15 -6 61 -13 102 -15 219 -14 395 -129
520 -342 23 -39 23 -40 2 -21 -12 11 -22 16 -22 13 0 -9 64 -111 74 -118 24
-18 108 -402 105 -486 -1 -27 -1 -27 -14 7 -13 33 -13 32 -8 -33 5 -60 4 -67
-11 -61 -20 8 -20 3 -1 -43 16 -38 33 -55 46 -47 4 2 10 41 14 87 13 155 -46
468 -119 637 -44 102 -125 219 -195 281 -103 92 -281 159 -423 159 -65 0 -69
1 -79 28 -20 51 -4 140 52 287 45 120 53 150 53 210 0 86 -23 135 -90 193 -42
36 -48 46 -55 94 -4 29 -8 83 -8 119 -1 51 -5 70 -19 82 -26 24 -68 21 -129
-7z m99 -23 c11 -13 17 -50 22 -119 l6 -102 -50 -16 c-77 -25 -142 -68 -173
-114 -16 -23 -33 -42 -38 -42 -16 0 -10 103 11 179 37 133 76 187 155 215 52
19 49 19 67 -1z m-232 -440 c22 -21 61 -46 87 -55 l48 -17 -80 5 c-77 5 -127
-4 -285 -51 -24 -7 -23 -6 9 28 24 26 44 37 69 39 38 3 55 24 25 30 -13 3 -6
10 25 22 23 10 42 22 42 27 0 18 21 8 60 -28z m143 -92 c21 -5 39 -5 43 0 7
12 54 11 54 -1 0 -5 16 -20 35 -32 28 -19 33 -27 28 -48 -8 -35 -40 -87 -91
-147 -48 -57 -71 -67 -73 -30 0 12 -8 -14 -16 -58 -11 -61 -13 -110 -7 -205 4
-69 6 -142 6 -163 -3 -94 -68 -133 -99 -60 -15 37 -15 79 2 218 l4 40 -14 -45
c-24 -71 -29 -144 -15 -195 12 -41 11 -48 -4 -63 -16 -16 -19 -15 -42 11 -45
53 -27 164 60 351 63 136 89 220 83 268 -7 54 11 35 29 -29 9 -34 13 -40 13
-22 1 32 -22 91 -44 113 -21 21 -12 33 35 47 22 7 40 16 40 21 0 7 -131 13
-255 10 l-50 -1 35 14 c40 15 186 19 243 6z m254 -1591 c-15 -39 -57 -43 -57
-6 0 26 11 34 47 35 20 1 20 -1 10 -29z m303 18 c-1 -36 -14 -58 -35 -58 -18
0 -24 7 -27 30 -3 17 -2 32 0 35 11 11 62 4 62 -7z m-307 -92 c-4 -18 -14 -27
-35 -31 -36 -8 -41 -4 -32 29 5 21 12 26 39 26 29 0 32 -3 28 -24z m305 -31
c-2 -1 -18 -6 -35 -10 -32 -6 -33 -5 -33 24 0 26 4 30 33 33 27 3 32 -1 35
-20 2 -13 2 -25 0 -27z m-318 -34 c0 -22 -4 -26 -42 -35 -26 -6 -28 -4 -28 24
0 28 3 30 35 30 28 0 35 -4 35 -19z m316 -13 c-2 -18 -11 -24 -34 -26 -28 -3
-32 0 -32 22 0 23 4 26 35 26 31 0 34 -3 31 -22z m-335 -65 c-5 -21 -15 -29
-34 -31 -23 -3 -27 1 -27 21 0 30 7 37 41 37 25 0 27 -2 20 -27z m327 -10 c-2
-22 -9 -29 -30 -31 -25 -3 -28 0 -28 27 0 28 3 31 31 31 27 0 30 -3 27 -27z
m-340 -95 c1 -34 -3 -69 -8 -79 -11 -19 -73 -44 -133 -54 -33 -5 -38 -3 -47
20 -14 36 -14 35 23 35 47 0 72 19 27 21 l-35 1 33 8 c18 4 41 15 50 23 11 10
27 13 46 10 20 -4 27 -2 22 6 -4 6 -16 11 -28 11 -14 0 -18 5 -14 16 3 9 6 22
6 30 0 9 11 14 29 14 28 0 28 -1 29 -62z m344 -5 c4 -50 9 -61 41 -89 21 -17
37 -36 37 -43 0 -18 -45 -13 -74 10 -20 16 -26 17 -26 6 0 -14 -67 -64 -75
-56 -2 2 -6 16 -10 31 -5 21 -3 27 14 33 12 3 21 11 21 16 0 13 -37 -7 -78
-42 -41 -36 -68 -38 -74 -4 -5 22 0 26 51 41 56 16 101 47 101 69 0 7 12 10
31 7 22 -3 30 -1 25 7 -4 6 -16 11 -27 11 -14 0 -19 7 -19 30 0 26 3 30 29 30
28 0 29 -2 33 -57z m-557 -69 c-16 -8 -34 -22 -38 -30 -4 -8 -17 -14 -28 -14
-15 0 -20 6 -17 22 3 23 30 35 83 37 l30 1 -30 -16z m13 -47 c3 -12 -4 -17
-22 -17 -28 0 -33 9 -14 28 15 15 32 10 36 -11z"/>
<path d="M1256 2668 c-49 -69 24 -150 92 -102 28 20 31 83 4 107 -27 25 -78
22 -96 -5z m84 -8 c40 -40 16 -94 -40 -88 -45 4 -62 43 -36 82 20 31 49 33 76
6z"/>
<path d="M1274 2635 c-9 -23 3 -45 25 -45 25 0 34 14 26 40 -7 23 -43 27 -51
5z"/>
<path d="M1470 2596 c0 -8 5 -18 10 -21 6 -3 10 -15 10 -26 0 -10 5 -19 11
-19 6 0 9 16 7 37 -2 27 -8 39 -20 41 -11 2 -18 -3 -18 -12z"/>
<path d="M1371 2033 c-1 -59 -11 -67 -29 -25 -11 25 -11 23 -8 -20 4 -49 -1
-57 -22 -36 -9 9 -12 5 -12 -19 0 -40 17 -52 29 -21 5 13 25 43 45 67 21 24
33 47 29 50 -5 3 -14 17 -20 31 -11 23 -12 20 -12 -27z"/>
<path d="M1670 1921 c19 -10 44 -29 55 -41 16 -18 17 -23 5 -30 -12 -8 -10
-10 8 -10 22 0 22 1 8 29 -16 31 -47 54 -86 65 -18 5 -15 1 10 -13z"/>
<path d="M1622 1844 c9 -10 32 -27 50 -38 l33 -18 -30 26 c-16 14 -39 31 -50
38 -19 10 -19 10 -3 -8z"/>
<path d="M1914 1769 c25 -22 53 -50 61 -62 8 -12 15 -16 15 -9 0 14 -99 112
-114 112 -5 0 12 -18 38 -41z"/>
<path d="M1589 1755 c6 -11 17 -28 24 -37 16 -20 67 -35 67 -19 0 6 -7 8 -15
5 -10 -4 -29 8 -51 32 -20 22 -31 30 -25 19z"/>
<path d="M1885 1721 c17 -18 44 -40 62 -47 49 -21 53 -16 8 8 -22 11 -42 24
-45 27 -3 3 -16 15 -30 26 -21 16 -20 14 5 -14z"/>
<path d="M1484 1674 c16 -34 70 -84 89 -84 7 0 -3 9 -20 20 -18 11 -33 23 -33
27 -1 5 -12 22 -26 38 l-26 30 16 -31z"/>
<path d="M1579 1666 c18 -22 66 -47 75 -39 12 12 6 22 -10 16 -9 -3 -29 5 -47
18 -21 15 -27 17 -18 5z"/>
<path d="M1905 1565 c22 -58 17 -66 -28 -44 -21 10 -21 10 -3 -5 11 -9 28 -16
38 -16 23 0 24 37 1 65 -16 20 -16 20 -8 0z"/>
<path d="M1710 1561 c0 -17 100 -101 120 -101 11 0 20 4 20 9 0 5 -9 7 -21 4
-15 -4 -33 7 -70 46 -27 28 -49 47 -49 42z"/>
<path d="M2072 1530 c8 -14 26 -45 41 -70 31 -54 77 -187 78 -227 0 -15 3 -22
6 -14 16 39 -63 245 -118 311 l-21 25 14 -25z"/>
<path d="M1515 1490 c39 -76 76 -131 86 -124 5 3 -14 40 -42 82 -66 99 -78
110 -44 42z"/>
<path d="M1851 1358 c33 -62 104 -158 116 -158 8 0 -8 26 -37 61 -27 33 -57
73 -65 90 -9 16 -18 29 -21 29 -2 0 1 -10 7 -22z"/>
<path d="M1960 1377 c0 -11 92 -167 102 -173 23 -14 13 8 -43 91 -32 49 -59
86 -59 82z"/>
<path d="M1751 1317 c34 -50 59 -76 59 -61 0 5 -21 32 -46 59 l-46 50 33 -48z"/>
<path d="M2120 1010 c0 -28 63 -112 74 -99 1 2 -1 18 -5 34 -8 30 -69 87 -69
65z"/>
<path d="M1936 491 c5 -5 43 -14 84 -21 41 -6 79 -15 84 -20 19 -19 -89 -44
-258 -60 -132 -12 -138 -24 -7 -16 135 8 236 23 289 42 71 26 49 49 -65 69
-92 17 -141 19 -127 6z"/>
<path d="M998 474 c-57 -17 -62 -39 -14 -59 73 -31 545 -71 519 -45 -6 7 -44
14 -85 16 -221 10 -286 15 -318 23 -19 5 -47 12 -62 15 -39 9 -35 32 7 40 19
4 37 11 40 16 9 14 -32 11 -87 -6z"/>
</g>
</svg>
